<svg width="37" height="36" viewBox="0 0 37 36" fill="none" xmlns="http://www.w3.org/2000/svg">
<g clip-path="url(#clip0_872_4273)">
<path d="M27.7564 17.6838H27.6664L25.2645 17.3857C25.1223 17.3674 24.9925 17.2954 24.9015 17.1846C24.8106 17.0738 24.7654 16.9324 24.7751 16.7894L24.9158 14.8825C24.5579 14.7269 24.2152 14.5386 23.892 14.32L22.3283 15.445C22.2099 15.527 22.0645 15.5605 21.9222 15.5385C21.7799 15.5165 21.6514 15.4408 21.5633 15.3269L20.0895 13.3469C20.0014 13.2328 19.9604 13.0893 19.9751 12.9459C19.9897 12.8025 20.0589 12.6702 20.1683 12.5763L21.6139 11.3275C21.4748 10.9634 21.3712 10.5866 21.3045 10.2025L19.4201 9.87628C19.2778 9.8514 19.1504 9.77267 19.0645 9.65641C18.9787 9.54016 18.9408 9.39531 18.9589 9.25191L19.257 6.85003C19.2753 6.70784 19.3472 6.578 19.458 6.48705C19.5689 6.39609 19.7102 6.35088 19.8533 6.36066L21.7601 6.50128C21.9136 6.1424 22.102 5.79949 22.3226 5.47753L21.1976 3.91378C21.1139 3.79495 21.0795 3.64835 21.1015 3.50469C21.1235 3.36103 21.2003 3.23147 21.3158 3.14316L23.2226 1.65816C23.3367 1.57005 23.4803 1.52909 23.6237 1.54374C23.7671 1.5584 23.8994 1.62754 23.9933 1.73691L25.287 3.22191C25.6518 3.08354 26.0284 2.97812 26.412 2.90691L26.7383 1.02816C26.7631 0.885783 26.8419 0.758449 26.9581 0.672568C27.0744 0.586688 27.2192 0.548852 27.3626 0.566909L29.7645 0.865034C29.9067 0.883338 30.0365 0.955245 30.1275 1.06606C30.2184 1.17688 30.2636 1.31825 30.2539 1.46128L30.1132 3.36816C30.4721 3.5216 30.815 3.71001 31.137 3.93066L32.7008 2.80566C32.8191 2.72368 32.9645 2.69023 33.1068 2.71221C33.2491 2.73419 33.3776 2.80991 33.4658 2.92378L34.9789 4.84753C35.067 4.96161 35.1079 5.10516 35.0933 5.24856C35.0786 5.39196 35.0095 5.52426 34.9001 5.61816L33.4545 6.86691C33.5929 7.23175 33.6983 7.60826 33.7695 7.99191L35.6483 8.31816C35.7918 8.34432 35.9196 8.42524 36.0046 8.54384C36.0896 8.66244 36.1252 8.80943 36.1039 8.95378L35.8058 11.3557C35.7874 11.4979 35.7155 11.6277 35.6047 11.7186C35.4939 11.8096 35.3525 11.8548 35.2095 11.845L33.2914 11.7044C33.1379 12.0633 32.9495 12.4062 32.7289 12.7282L33.8539 14.2919C33.9365 14.4096 33.9708 14.5545 33.9499 14.6968C33.929 14.8391 33.8544 14.9679 33.7414 15.0569L31.8289 16.5475C31.7137 16.6408 31.5664 16.6848 31.4189 16.6701C31.2715 16.6553 31.1358 16.583 31.0414 16.4688L29.7701 15.0344C29.4051 15.171 29.0286 15.2745 28.6451 15.3438L28.3189 17.2282C28.2937 17.3582 28.2235 17.4751 28.1207 17.5585C28.0178 17.6418 27.8888 17.6862 27.7564 17.6838ZM25.9789 16.3282L27.312 16.4969L27.6214 14.7419C27.6413 14.6215 27.6998 14.5109 27.7881 14.4267C27.8763 14.3425 27.9896 14.2893 28.1108 14.275C28.6679 14.2169 29.2115 14.0668 29.7195 13.8307C29.8303 13.7807 29.9543 13.7679 30.0729 13.7943C30.1915 13.8206 30.2984 13.8847 30.3776 13.9769L31.542 15.3269L32.6051 14.5L31.5814 13.0432C31.507 12.9453 31.4668 12.8258 31.4668 12.7028C31.4668 12.5799 31.507 12.4604 31.5814 12.3625C31.9322 11.9287 32.2096 11.4404 32.4026 10.9169C32.4447 10.8036 32.5221 10.7069 32.6234 10.6411C32.7247 10.5752 32.8445 10.5437 32.9651 10.5513L34.7483 10.6807L34.9114 9.34753L33.1564 9.03816C33.0352 9.01797 32.9239 8.95864 32.8396 8.86926C32.7553 8.77987 32.7026 8.66534 32.6895 8.54316C32.6308 7.98794 32.4806 7.44625 32.2451 6.94003C32.1951 6.82926 32.1824 6.70527 32.2087 6.58663C32.2351 6.46799 32.2992 6.36108 32.3914 6.28191L33.7414 5.11191L32.9201 4.04878L31.4633 5.07816C31.3654 5.15252 31.2459 5.19278 31.1229 5.19278C31 5.19278 30.8805 5.15252 30.7826 5.07816C30.3555 4.72099 29.8729 4.43599 29.3539 4.23441C29.2406 4.19235 29.1439 4.11494 29.078 4.01363C29.0122 3.91232 28.9807 3.7925 28.9882 3.67191L29.1176 1.88878L27.7845 1.72566L27.4751 3.48066C27.4552 3.60102 27.3967 3.71165 27.3084 3.79586C27.2202 3.88008 27.1069 3.93331 26.9858 3.94753C26.4293 4.00596 25.886 4.15412 25.377 4.38628C25.2668 4.43692 25.1432 4.45059 25.0246 4.42525C24.906 4.39991 24.7988 4.33691 24.7189 4.24566L23.5545 2.89566L22.4745 3.71691L23.4983 5.17378C23.5726 5.27165 23.6129 5.39118 23.6129 5.5141C23.6129 5.63701 23.5726 5.75654 23.4983 5.85441C23.1455 6.2869 22.8679 6.77557 22.677 7.30003C22.6349 7.41331 22.5575 7.51003 22.4562 7.57588C22.3549 7.64174 22.2351 7.67321 22.1145 7.66566L20.3314 7.53628L20.1401 8.84691L21.8951 9.15628C22.0155 9.17619 22.1261 9.23469 22.2103 9.32296C22.2945 9.41123 22.3478 9.52449 22.362 9.64566C22.4201 10.2028 22.5703 10.7464 22.8064 11.2544C22.8564 11.3652 22.8691 11.4892 22.8428 11.6078C22.8164 11.7264 22.7523 11.8334 22.6601 11.9125L21.3101 13.0769L22.137 14.14L23.5939 13.1163C23.6917 13.0419 23.8113 13.0017 23.9342 13.0017C24.0571 13.0017 24.1766 13.0419 24.2745 13.1163C24.7083 13.4671 25.1967 13.7445 25.7201 13.9375C25.8334 13.9796 25.9301 14.057 25.996 14.1583C26.0618 14.2596 26.0933 14.3794 26.0858 14.5L25.9789 16.3282Z" fill="#323336"/>
<path d="M24.7417 8.55994C24.6723 8.56054 24.6034 8.54715 24.5392 8.52057C24.4007 8.46653 24.2893 8.35987 24.2292 8.2239C24.1691 8.08794 24.1653 7.93372 24.2186 7.79494C24.396 7.34213 24.6642 6.9304 25.0067 6.58507C25.3491 6.23973 25.7585 5.96808 26.2098 5.78682C26.2791 5.75367 26.3544 5.73505 26.4311 5.7321C26.5078 5.72916 26.5843 5.74194 26.6559 5.76967C26.7275 5.79741 26.7926 5.8395 26.8473 5.89336C26.902 5.94722 26.9451 6.01171 26.974 6.08286C27.0028 6.154 27.0168 6.2303 27.015 6.30705C27.0133 6.3838 26.9958 6.45938 26.9638 6.52913C26.9317 6.59888 26.8857 6.66133 26.8286 6.71264C26.7715 6.76394 26.7045 6.80301 26.6317 6.82744C26.3235 6.95284 26.0436 7.13897 25.8088 7.37476C25.5739 7.61055 25.389 7.89118 25.2648 8.19994C25.224 8.30566 25.1523 8.39659 25.0589 8.46082C24.9656 8.52506 24.855 8.55961 24.7417 8.55994Z" fill="#323336"/>
<path d="M30.3271 8.55994C30.2134 8.56119 30.1021 8.528 30.0077 8.46474C29.9134 8.40148 29.8403 8.31113 29.7983 8.20557C29.6764 7.89528 29.4914 7.61363 29.2552 7.37837C29.019 7.14312 28.7366 6.95936 28.4258 6.83869C28.3571 6.81136 28.2945 6.77077 28.2415 6.71923C28.1884 6.66769 28.1461 6.60621 28.1169 6.53831C28.0876 6.47041 28.072 6.39741 28.071 6.32348C28.0699 6.24955 28.0835 6.17614 28.1108 6.10744C28.1381 6.03875 28.1787 5.97611 28.2303 5.9231C28.2818 5.87009 28.3433 5.82775 28.4112 5.7985C28.4791 5.76925 28.5521 5.75366 28.626 5.75262C28.6999 5.75158 28.7734 5.76511 28.8421 5.79244C29.2956 5.97023 29.7078 6.23917 30.0532 6.58265C30.3986 6.92612 30.6699 7.33681 30.8502 7.78932C30.8774 7.85836 30.8907 7.93211 30.8894 8.00632C30.888 8.08052 30.8719 8.15372 30.8421 8.2217C30.8123 8.28967 30.7693 8.35108 30.7157 8.40237C30.6621 8.45367 30.5988 8.49384 30.5296 8.52057C30.4654 8.54715 30.3965 8.56054 30.3271 8.55994Z" fill="#323336"/>
<path d="M26.418 12.4638C26.3485 12.4644 26.2797 12.451 26.2155 12.4244C25.7616 12.2457 25.3492 11.9758 25.0038 11.6314C24.6584 11.287 24.3873 10.8753 24.2074 10.4219C24.18 10.3533 24.1665 10.2798 24.1675 10.2059C24.1686 10.132 24.1842 10.059 24.2134 9.99108C24.2427 9.92318 24.285 9.86171 24.338 9.81017C24.391 9.75863 24.4537 9.71803 24.5224 9.6907C24.5911 9.66337 24.6645 9.64983 24.7384 9.65087C24.8123 9.65191 24.8853 9.6675 24.9532 9.69675C25.0211 9.726 25.0826 9.76834 25.1341 9.82135C25.1857 9.87436 25.2263 9.937 25.2536 10.0057C25.3755 10.3167 25.5603 10.5991 25.7965 10.8353C26.0327 11.0715 26.3151 11.2563 26.6261 11.3782C26.748 11.4264 26.8492 11.5156 26.9123 11.6304C26.9754 11.7453 26.9965 11.8785 26.9718 12.0072C26.9471 12.1359 26.8783 12.252 26.7772 12.3353C26.6761 12.4187 26.549 12.4641 26.418 12.4638Z" fill="#323336"/>
<path d="M28.6342 12.4638C28.5036 12.4628 28.3774 12.4165 28.2773 12.3327C28.1772 12.2489 28.1093 12.1328 28.0854 12.0045C28.0615 11.8761 28.0829 11.7434 28.1461 11.6292C28.2093 11.5149 28.3102 11.4262 28.4317 11.3782C28.7425 11.2571 29.0246 11.0725 29.26 10.8362C29.4953 10.5999 29.6788 10.317 29.7985 10.0057C29.8537 9.8662 29.9621 9.75435 30.0997 9.69475C30.2374 9.63515 30.3931 9.63268 30.5326 9.68788C30.6721 9.74307 30.7839 9.85142 30.8435 9.98909C30.9031 10.1267 30.9056 10.2825 30.8504 10.4219C30.6704 10.8753 30.3994 11.2869 30.054 11.6314C29.7086 11.9758 29.2962 12.2457 28.8423 12.4244C28.776 12.4506 28.7054 12.464 28.6342 12.4638Z" fill="#323336"/>
<path d="M12.62 35.1606C12.4708 35.1606 12.3277 35.1014 12.2222 34.9959C12.1168 34.8904 12.0575 34.7473 12.0575 34.5981V29.62C11.495 29.5469 10.8481 29.5075 10.235 29.4625C7.51249 29.2769 4.42436 29.0969 4.53124 26.1719V20.6144H2.56249C2.33678 20.6142 2.1149 20.5561 1.91797 20.4459C1.72104 20.3356 1.55562 20.1767 1.43749 19.9844C1.31599 19.7926 1.24641 19.5725 1.23557 19.3457C1.22472 19.1189 1.27298 18.8932 1.37561 18.6906C1.38839 18.6614 1.40344 18.6332 1.42061 18.6063L5.16686 13.4819L5.49874 8.90877C5.49874 8.90877 5.49874 8.85815 5.49874 8.83565C6.57874 3.52565 10.91 0.831273 18.3744 0.831273C19.1278 0.829603 19.8802 0.887913 20.6244 1.00565C20.6982 1.01747 20.7691 1.04372 20.8328 1.08291C20.8965 1.12209 20.9519 1.17345 20.9958 1.23404C21.0396 1.29463 21.0711 1.36327 21.0885 1.43604C21.1058 1.50881 21.1087 1.58428 21.0969 1.65815C21.085 1.73202 21.0588 1.80283 21.0196 1.86656C20.9804 1.93028 20.9291 1.98566 20.8685 2.02953C20.8079 2.07341 20.7392 2.10492 20.6665 2.12227C20.5937 2.13962 20.5182 2.14247 20.4444 2.13065C19.7579 2.02169 19.0638 1.96715 18.3687 1.96752C11.54 1.95627 7.57436 4.3469 6.59561 9.0269L6.25811 13.7238C6.24903 13.829 6.21215 13.93 6.15124 14.0163L2.35436 19.2194C2.34057 19.2454 2.33336 19.2744 2.33336 19.3038C2.33336 19.3332 2.34057 19.3622 2.35436 19.3881C2.37111 19.4196 2.39631 19.4457 2.42712 19.4636C2.45793 19.4815 2.49313 19.4904 2.52874 19.4894H5.05999C5.20917 19.4894 5.35225 19.5487 5.45774 19.6541C5.56323 19.7596 5.62249 19.9027 5.62249 20.0519V26.1944C5.56061 27.8819 7.33811 28.1406 10.28 28.3431C11.0844 28.3994 11.9225 28.4556 12.6762 28.5738C12.8093 28.5953 12.9303 28.664 13.017 28.7672C13.1037 28.8705 13.1505 29.0014 13.1487 29.1363V34.6038C13.1476 34.7463 13.0923 34.8831 12.9942 34.9865C12.896 35.0898 12.7623 35.1521 12.62 35.1606Z" fill="#323336"/>
<path d="M24.5278 35.1607C24.3786 35.1607 24.2356 35.1014 24.1301 34.9959C24.0246 34.8904 23.9653 34.7474 23.9653 34.5982V28.2926C23.9665 28.1728 24.006 28.0565 24.0778 27.9607C25.9453 25.4294 28.4991 21.9644 29.056 18.4994C29.0678 18.4256 29.094 18.3547 29.1332 18.291C29.1724 18.2273 29.2238 18.1719 29.2843 18.128C29.3449 18.0842 29.4136 18.0527 29.4863 18.0353C29.5591 18.018 29.6346 18.0151 29.7085 18.0269C29.7823 18.0387 29.8531 18.065 29.9169 18.1042C29.9806 18.1434 30.036 18.1947 30.0798 18.2553C30.1237 18.3159 30.1552 18.3846 30.1726 18.4573C30.1899 18.5301 30.1928 18.6056 30.181 18.6794C29.6185 22.3413 27.031 25.8682 25.1185 28.4782V34.5982C25.1186 34.6745 25.1031 34.75 25.0731 34.8201C25.0431 34.8903 24.9991 34.9536 24.9439 35.0062C24.8886 35.0588 24.8233 35.0997 24.7517 35.1262C24.6802 35.1528 24.604 35.1645 24.5278 35.1607Z" fill="#323336"/>
</g>
<defs>
<clipPath id="clip0_872_4273">
<rect width="36" height="36" fill="white" transform="translate(0.666626)"/>
</clipPath>
</defs>
</svg>
