<svg width="36" height="36" viewBox="0 0 36 36" fill="none" xmlns="http://www.w3.org/2000/svg">
<g clip-path="url(#clip0_872_4184)">
<path d="M23.2222 23.9123C23.0051 23.7081 22.6634 23.7175 22.4586 23.9342L20.0232 26.5133C19.827 26.7213 19.827 27.0464 20.0232 27.2549L22.4586 29.8353C22.5648 29.948 22.7077 30.0049 22.8514 30.0049C22.9842 30.0049 23.1174 29.9559 23.2218 29.8577C23.4389 29.6532 23.4486 29.3112 23.2441 29.0945L21.1586 26.8844L23.2441 24.6762C23.4486 24.4587 23.4385 24.1171 23.2222 23.9123ZM30.019 26.5147L27.5836 23.9342C27.3791 23.7171 27.0374 23.7074 26.8204 23.9119C26.6033 24.1164 26.5936 24.4584 26.798 24.6751L28.8835 26.8851L26.798 29.0934C26.5936 29.3105 26.6033 29.6521 26.82 29.8569C26.9244 29.9552 27.0576 30.0042 27.1908 30.0042C27.3341 30.0042 27.4774 29.9473 27.5836 29.835L30.019 27.2559C30.2155 27.0482 30.2155 26.7228 30.019 26.5147ZM25.7652 23.8136C25.4754 23.7456 25.1838 23.9216 25.1129 24.2111L23.8788 29.3033C23.8086 29.5934 23.9868 29.885 24.2762 29.9556C24.3191 29.9657 24.3616 29.9707 24.4037 29.9707C24.6474 29.9707 24.8681 29.8051 24.9282 29.5581L26.1626 24.4659C26.2332 24.1758 26.055 23.8842 25.7652 23.8136ZM25.5611 6.24274V3.05999C25.5611 1.57103 24.35 0.359985 22.8611 0.359985H8.5338C7.04484 0.359985 5.8338 1.57103 5.8338 3.05999V32.6397C5.8338 34.1287 7.04484 35.3397 8.5338 35.3397H22.8611C24.35 35.3397 25.5611 34.1287 25.5611 32.6397V31.3938C25.5611 31.0957 25.3192 30.8538 25.0211 30.8538C24.723 30.8538 24.4811 31.0957 24.4811 31.3938V32.6397C24.4811 33.5329 23.7542 34.2597 22.8611 34.2597H8.5338C7.64064 34.2597 6.9138 33.5329 6.9138 32.6397V3.05999C6.9138 2.16683 7.64064 1.43999 8.5338 1.43999H22.8611C23.7542 1.43999 24.4811 2.16683 24.4811 3.05999V22.1533C24.4811 22.4514 24.723 22.6933 25.0211 22.6933C25.3192 22.6933 25.5611 22.4514 25.5611 22.1533V10.3691C25.9722 10.2859 26.2822 9.92195 26.2822 9.48707V7.12439C26.2822 6.68987 25.9722 6.3259 25.5611 6.24274ZM14.1962 32.3924C14.1962 33.2201 14.8698 33.8936 15.6974 33.8936C16.5251 33.8936 17.1986 33.2201 17.1986 32.3924C17.1986 31.5651 16.5251 30.8919 15.6974 30.8919C14.8698 30.8919 14.1962 31.5651 14.1962 32.3924ZM16.1186 32.3924C16.1186 32.625 15.9296 32.8136 15.6974 32.8136C15.4652 32.8136 15.2762 32.625 15.2762 32.3924C15.2762 32.1606 15.4652 31.9719 15.6974 31.9719C15.9296 31.9719 16.1186 32.1606 16.1186 32.3924ZM18.9374 2.57147C18.9374 2.27303 18.6959 2.03147 18.3974 2.03147H12.9974C12.699 2.03147 12.4574 2.27303 12.4574 2.57147C12.4574 2.86991 12.699 3.11147 12.9974 3.11147H18.3974C18.6959 3.11147 18.9374 2.86955 18.9374 2.57147Z" fill="#323336"/>
</g>
<defs>
<clipPath id="clip0_872_4184">
<rect width="36" height="36" fill="white"/>
</clipPath>
</defs>
</svg>
