<svg width="37" height="36" viewBox="0 0 37 36" fill="none" xmlns="http://www.w3.org/2000/svg">
<g clip-path="url(#clip0_872_4305)">
<path d="M14.3418 5.04157C14.3418 5.98352 14.6732 6.85225 15.2303 7.53006C14.366 7.97929 13.6174 8.60633 13.0187 9.374C12.4881 8.44455 11.7084 7.68404 10.7688 7.18535C11.2509 6.60233 11.5403 5.85467 11.5403 5.04157C11.5403 3.19192 10.0395 1.6815 8.17852 1.6809C6.31753 1.6815 4.81676 3.19192 4.81676 5.04157C4.81676 5.85607 5.10379 6.60299 5.58716 7.18645C3.79023 8.1416 2.57449 10.055 2.57449 12.2532V13.1089C2.57449 14.8532 3.9564 16.2485 5.66376 16.2485H10.6889C11.0691 16.2485 11.4294 16.1809 11.7679 16.0527C11.9493 16.5516 12.2378 16.9957 12.5974 17.368C9.07039 17.3679 5.54339 17.3678 2.01638 17.3692C1.70351 17.3679 1.45026 17.621 1.4539 17.9338C1.46343 19.0952 1.57642 19.822 1.84238 20.3654C2.12939 20.9518 2.56181 21.1946 2.93014 21.3623C3.29847 21.53 3.60214 21.6347 3.93145 21.9128C4.26075 22.1909 4.63504 22.6581 5.03124 23.5882C5.42744 24.5183 5.50302 25.1125 5.47335 25.5361C5.44368 25.9597 5.31084 26.2338 5.16803 26.5987C5.02522 26.9636 4.8725 27.4322 5.07282 28.0344C5.25863 28.593 5.68277 29.1567 6.47903 29.9364C7.27529 30.716 7.84803 31.1259 8.41051 31.301C8.973 31.476 9.40424 31.366 9.84517 31.1861C10.2088 31.0377 10.4872 30.9001 10.9132 30.8633C11.3392 30.8264 11.9365 30.8893 12.8775 31.2682C13.8185 31.647 14.2925 32.0143 14.5727 32.3351C14.8528 32.6559 14.9574 32.945 15.1154 33.3036C15.2735 33.6622 15.4901 34.0943 16.0664 34.3826C16.5683 34.6337 17.2365 34.7372 18.2627 34.7383C19.2889 34.7372 19.9572 34.6337 20.459 34.3826C21.0353 34.0943 21.2519 33.6622 21.41 33.3036C21.5681 32.945 21.6727 32.6559 21.9528 32.3351C22.2329 32.0143 22.7069 31.647 23.6479 31.2682C24.5889 30.8893 25.1862 30.8264 25.6122 30.8633C26.0382 30.9001 26.3166 31.0377 26.6803 31.1861C27.1212 31.366 27.5524 31.476 28.1149 31.301C28.6774 31.1259 29.2501 30.716 30.0464 29.9364C30.8427 29.1567 31.2668 28.593 31.4526 28.0344C31.6529 27.4322 31.5002 26.9636 31.3574 26.5987C31.2146 26.2338 31.0817 25.9597 31.0521 25.5361C31.0224 25.1125 31.098 24.5183 31.4942 23.5882C31.8904 22.6581 32.2647 22.1909 32.594 21.9128C32.9233 21.6347 33.227 21.53 33.5953 21.3623C33.9636 21.1946 34.396 20.9518 34.683 20.3654C34.949 19.822 35.062 19.0952 35.0715 17.9338C35.0751 17.621 34.8219 17.3679 34.509 17.3691C30.982 17.3678 27.455 17.3679 23.928 17.368C24.2876 16.9957 24.5761 16.5516 24.7575 16.0526C25.0961 16.1809 25.4563 16.2485 25.8365 16.2485H30.8617C32.569 16.2485 33.9509 14.8532 33.9509 13.1089V12.2532C33.9509 10.055 32.7352 8.1416 30.9383 7.18645C31.4216 6.60299 31.7087 5.85607 31.7087 5.04157C31.7087 3.19192 30.2079 1.6815 28.3469 1.6809C26.4859 1.6815 24.9851 3.19192 24.9851 5.04157C24.9851 5.85467 25.2745 6.60233 25.7566 7.18535C24.8171 7.68404 24.0373 8.44455 23.5067 9.374C22.908 8.60633 22.1595 7.97929 21.2951 7.53006C21.8522 6.85225 22.1837 5.98352 22.1837 5.04157C22.1837 2.88211 20.4353 1.12061 18.2627 1.12061C16.0901 1.12061 14.3418 2.88211 14.3418 5.04157ZM18.2627 2.24229C19.8012 2.24229 21.0631 3.48772 21.0631 5.04157C21.0631 6.59542 19.798 7.84414 18.2627 7.84414C16.7274 7.84414 15.4623 6.59542 15.4623 5.04157C15.4623 3.48772 16.7242 2.24229 18.2627 2.24229ZM8.17852 2.80149C9.40983 2.80209 10.4197 3.79754 10.4197 5.04157C10.4197 6.2856 9.41202 7.28322 8.17852 7.28384C6.94502 7.28324 5.93734 6.2856 5.93734 5.04157C5.93734 3.79754 6.9472 2.80209 8.17852 2.80149ZM28.3469 2.80149C29.5782 2.80209 30.5881 3.79754 30.5881 5.04157C30.5881 6.2856 29.5804 7.28324 28.3469 7.28384C27.1134 7.28322 26.1057 6.2856 26.1057 5.04157C26.1057 3.79754 27.1156 2.80209 28.3469 2.80149ZM8.17852 8.40443C8.77202 8.40424 9.33272 8.24604 9.81453 7.97874C10.9206 8.42051 11.8451 9.32972 12.3118 10.476C11.815 11.4478 11.5414 12.5327 11.5414 13.6878V14.7515C11.5414 14.8091 11.541 14.8718 11.5435 14.9288C11.2839 15.0579 11.0002 15.128 10.6888 15.128H5.6637C4.56899 15.128 3.69501 14.2285 3.69501 13.1089V12.2532C3.69501 10.2944 4.87565 8.64565 6.54138 7.97874C7.02471 8.24843 7.58218 8.40423 8.17852 8.40443ZM28.3469 8.40443C28.9433 8.40423 29.5007 8.24842 29.984 7.97874C31.6497 8.64565 32.8304 10.2944 32.8304 12.2532V13.1089C32.8304 14.2285 31.9564 15.128 30.8617 15.128H25.8365C25.5251 15.128 25.2415 15.0579 24.9819 14.9288C24.9844 14.8718 24.984 14.8091 24.984 14.7515V13.6878C24.984 12.5327 24.7104 11.4478 24.2136 10.476C24.6802 9.32972 25.6048 8.42051 26.7109 7.97874C27.1927 8.24604 27.7534 8.40424 28.3469 8.40443ZM16.1397 8.34096C16.7508 8.73514 17.4844 8.96472 18.2627 8.96472C19.041 8.96472 19.7746 8.73514 20.3857 8.34096C22.4312 9.20958 23.8635 11.2585 23.8635 13.6878V14.7515C23.8635 16.1929 22.7351 17.3631 21.3203 17.368C19.22 17.368 17.1574 17.3681 15.2052 17.368C13.7903 17.3631 12.662 16.1929 12.662 14.7515V13.6878C12.662 11.2585 14.0943 9.20958 16.1397 8.34096ZM10.4416 18.4875C10.6255 21.0716 12.0775 23.4135 14.3418 24.7208C15.5549 25.4212 16.9088 25.7714 18.2627 25.7714C19.6167 25.7714 20.9706 25.4212 22.1837 24.7208C24.448 23.4135 25.9 21.0716 26.0839 18.4875L33.9313 18.4897C33.9135 19.0607 33.8206 19.5837 33.6785 19.874C33.5666 20.1026 33.4283 20.2046 33.128 20.3413C32.8278 20.478 32.3558 20.6473 31.8706 21.057C31.3855 21.4667 30.9048 22.1053 30.4601 23.1494C30.0153 24.1934 29.8904 24.9816 29.9348 25.6149C29.9791 26.2481 30.1952 26.7002 30.3156 27.0079C30.3928 27.2051 30.4775 27.4192 30.39 27.682C30.3026 27.9449 29.9999 28.4104 29.2607 29.1342C28.5214 29.858 28.043 30.1615 27.7844 30.2307C27.5176 30.3138 27.3457 30.2453 27.106 30.1476C26.7988 30.0223 26.3455 29.8008 25.7118 29.7459C25.078 29.6911 24.2851 29.8015 23.2299 30.2264C22.1746 30.6512 21.5269 31.1211 21.1091 31.5997C20.6912 32.0784 20.5179 32.5503 20.3846 32.8527C20.2513 33.1551 20.1615 33.281 19.9589 33.3824C19.7213 33.5013 19.2048 33.6113 18.2627 33.6144C17.3206 33.6112 16.8042 33.5013 16.5665 33.3824C16.3639 33.281 16.2741 33.1551 16.1408 32.8527C16.0075 32.5503 15.8343 32.0784 15.4164 31.5997C14.9985 31.1211 14.3508 30.6512 13.2956 30.2264C12.2403 29.8015 11.4474 29.6911 10.8137 29.7459C10.1799 29.8008 9.72659 30.0223 9.41948 30.1476C9.17972 30.2453 9.00787 30.3138 8.741 30.2307C8.48248 30.1615 8.00399 29.858 7.26476 29.1342C6.52553 28.4104 6.22285 27.9449 6.13542 27.682C6.04798 27.4192 6.13266 27.2051 6.20983 27.0079C6.33026 26.7002 6.54631 26.2481 6.59066 25.6149C6.635 24.9816 6.51012 24.1934 6.06538 23.1494C5.62062 22.1053 5.13998 21.4667 4.6548 21.057C4.16961 20.6473 3.69767 20.478 3.39742 20.3413C3.09716 20.2046 2.95884 20.1026 2.84697 19.874C2.70486 19.5837 2.61195 19.0607 2.59418 18.4897L10.4416 18.4875ZM11.5633 18.4875C16.2652 18.4908 20.3433 18.4875 24.9622 18.4875C24.767 20.6951 23.5339 22.6517 21.6256 23.7534C20.5851 24.3542 19.4239 24.6541 18.2627 24.6541C17.1016 24.6541 15.9404 24.3542 14.8999 23.7534C12.9915 22.6517 11.7585 20.6951 11.5633 18.4875ZM9.09119 19.8325C8.70889 19.8137 8.41856 20.1709 8.52214 20.5394C9.45447 24.0189 12.1733 26.7377 15.6528 27.67C16.3757 27.8526 16.6623 26.7934 15.9417 26.591C12.8716 25.7684 10.4347 23.3494 9.60552 20.2549C9.54557 20.0172 9.33591 19.8461 9.09119 19.8325ZM27.4343 19.8325C27.1895 19.8461 26.9799 20.0172 26.9199 20.2549C26.0907 23.3494 23.6538 25.7684 20.5838 26.591C19.8632 26.7934 20.1497 27.8526 20.8727 27.67C24.3522 26.7377 27.071 24.0189 28.0033 20.5394C28.1069 20.1709 27.8165 19.8137 27.4343 19.8325Z" fill="#323336"/>
</g>
<defs>
<clipPath id="clip0_872_4305">
<rect width="36" height="36" fill="white" transform="translate(0.333313)"/>
</clipPath>
</defs>
</svg>
