<svg width="37" height="36" viewBox="0 0 37 36" fill="none" xmlns="http://www.w3.org/2000/svg">
<path d="M24.0933 11.844H12.5733C12.3573 11.844 12.2133 11.7 12.2133 11.484C12.2133 11.268 12.3573 11.124 12.5733 11.124H24.0933C24.3093 11.124 24.4533 11.268 24.4533 11.484C24.4533 11.7 24.3093 11.844 24.0933 11.844Z" fill="#323336"/>
<path d="M12.5733 15.516H5.44533C5.22933 15.516 5.08533 15.372 5.08533 15.156C5.08533 14.94 5.22933 14.796 5.44533 14.796H12.5733C12.7893 14.796 12.9333 14.94 12.9333 15.156C12.9333 15.372 12.7533 15.516 12.5733 15.516Z" fill="#323336"/>
<path d="M21.9333 15.516H14.8053C14.5893 15.516 14.4453 15.372 14.4453 15.156C14.4453 14.94 14.5893 14.796 14.8053 14.796H21.9333C22.1493 14.796 22.2933 14.94 22.2933 15.156C22.2933 15.372 22.1133 15.516 21.9333 15.516Z" fill="#323336"/>
<path d="M31.2933 15.516H24.1653C23.9493 15.516 23.8053 15.372 23.8053 15.156C23.8053 14.94 23.9493 14.796 24.1653 14.796H31.2933C31.5093 14.796 31.6533 14.94 31.6533 15.156C31.6533 15.372 31.4733 15.516 31.2933 15.516Z" fill="#323336"/>
<path d="M12.4293 17.352H5.30131C5.19331 17.352 5.12131 17.28 5.12131 17.172C5.12131 17.064 5.19331 16.992 5.30131 16.992H12.4293C12.5373 16.992 12.6093 17.064 12.6093 17.172C12.6093 17.28 12.5013 17.352 12.4293 17.352Z" fill="#323336"/>
<path d="M10.7373 18.792H5.30131C5.19331 18.792 5.12131 18.72 5.12131 18.612C5.12131 18.504 5.19331 18.432 5.30131 18.432H10.7373C10.8453 18.432 10.9173 18.504 10.9173 18.612C10.9173 18.72 10.8453 18.792 10.7373 18.792Z" fill="#323336"/>
<path d="M12.5733 20.232H5.30131C5.19331 20.232 5.12131 20.16 5.12131 20.052C5.12131 19.944 5.19331 19.872 5.30131 19.872H12.5733C12.6813 19.872 12.7533 19.944 12.7533 20.052C12.7533 20.16 12.6813 20.232 12.5733 20.232Z" fill="#323336"/>
<path d="M18.3333 17.352H14.6613C14.5533 17.352 14.4813 17.28 14.4813 17.172C14.4813 17.064 14.5533 16.992 14.6613 16.992H18.3333C18.4413 16.992 18.5133 17.064 18.5133 17.172C18.5133 17.28 18.4413 17.352 18.3333 17.352Z" fill="#323336"/>
<path d="M21.9333 18.792H14.6613C14.5533 18.792 14.4813 18.72 14.4813 18.612C14.4813 18.504 14.5533 18.432 14.6613 18.432H21.9333C22.0413 18.432 22.1133 18.504 22.1133 18.612C22.1133 18.72 22.0413 18.792 21.9333 18.792Z" fill="#323336"/>
<path d="M19.7013 20.232H14.6613C14.5533 20.232 14.4813 20.16 14.4813 20.052C14.4813 19.944 14.5533 19.872 14.6613 19.872H19.7013C19.8093 19.872 19.8813 19.944 19.8813 20.052C19.8813 20.16 19.7733 20.232 19.7013 20.232Z" fill="#323336"/>
<path d="M29.8533 17.352H24.0213C23.9133 17.352 23.8413 17.28 23.8413 17.172C23.8413 17.064 23.9133 16.992 24.0213 16.992H29.8533C29.9613 16.992 30.0333 17.064 30.0333 17.172C30.0333 17.28 29.9613 17.352 29.8533 17.352Z" fill="#323336"/>
<path d="M30.7533 18.792H24.0213C23.9133 18.792 23.8413 18.72 23.8413 18.612C23.8413 18.504 23.9133 18.432 24.0213 18.432H30.7893C30.8973 18.432 30.9693 18.504 30.9693 18.612C30.9693 18.72 30.8613 18.792 30.7533 18.792Z" fill="#323336"/>
<path d="M26.7213 20.232H23.9853C23.8773 20.232 23.8053 20.16 23.8053 20.052C23.8053 19.944 23.8773 19.872 23.9853 19.872H26.7213C26.8293 19.872 26.9013 19.944 26.9013 20.052C26.9013 20.16 26.8293 20.232 26.7213 20.232Z" fill="#323336"/>
<path d="M12.5733 23.796H5.44533C5.22933 23.796 5.08533 23.652 5.08533 23.436C5.08533 23.22 5.22933 23.076 5.44533 23.076H12.5733C12.7893 23.076 12.9333 23.22 12.9333 23.436C12.9333 23.652 12.7533 23.796 12.5733 23.796Z" fill="#323336"/>
<path d="M21.9333 23.796H14.8053C14.5893 23.796 14.4453 23.652 14.4453 23.436C14.4453 23.22 14.5893 23.076 14.8053 23.076H21.9333C22.1493 23.076 22.2933 23.22 22.2933 23.436C22.2933 23.652 22.1133 23.796 21.9333 23.796Z" fill="#323336"/>
<path d="M31.2933 23.796H24.1653C23.9493 23.796 23.8053 23.652 23.8053 23.436C23.8053 23.22 23.9493 23.076 24.1653 23.076H31.2933C31.5093 23.076 31.6533 23.22 31.6533 23.436C31.6533 23.652 31.4733 23.796 31.2933 23.796Z" fill="#323336"/>
<path d="M8.50531 25.632H5.30131C5.19331 25.632 5.12131 25.56 5.12131 25.452C5.12131 25.344 5.19331 25.272 5.30131 25.272H8.50531C8.61331 25.272 8.68531 25.344 8.68531 25.452C8.68531 25.56 8.57731 25.632 8.50531 25.632Z" fill="#323336"/>
<path d="M10.7373 27.072H5.30131C5.19331 27.072 5.12131 27 5.12131 26.892C5.12131 26.784 5.19331 26.712 5.30131 26.712H10.7373C10.8453 26.712 10.9173 26.784 10.9173 26.892C10.9173 27 10.8453 27.072 10.7373 27.072Z" fill="#323336"/>
<path d="M9.62131 28.512H5.30131C5.19331 28.512 5.12131 28.44 5.12131 28.332C5.12131 28.224 5.19331 28.152 5.30131 28.152H9.62131C9.72931 28.152 9.80131 28.224 9.80131 28.332C9.80131 28.44 9.69331 28.512 9.62131 28.512Z" fill="#323336"/>
<path d="M20.4933 25.632H14.6613C14.5533 25.632 14.4813 25.56 14.4813 25.452C14.4813 25.344 14.5533 25.272 14.6613 25.272H20.4933C20.6013 25.272 20.6733 25.344 20.6733 25.452C20.6733 25.56 20.6013 25.632 20.4933 25.632Z" fill="#323336"/>
<path d="M21.9333 27.072H14.6613C14.5533 27.072 14.4813 27 14.4813 26.892C14.4813 26.784 14.5533 26.712 14.6613 26.712H21.9333C22.0413 26.712 22.1133 26.784 22.1133 26.892C22.1133 27 22.0413 27.072 21.9333 27.072Z" fill="#323336"/>
<path d="M19.7013 28.512H14.6613C14.5533 28.512 14.4813 28.44 14.4813 28.332C14.4813 28.224 14.5533 28.152 14.6613 28.152H19.7013C19.8093 28.152 19.8813 28.224 19.8813 28.332C19.8813 28.44 19.7733 28.512 19.7013 28.512Z" fill="#323336"/>
<path d="M29.8533 25.632H24.0213C23.9133 25.632 23.8413 25.56 23.8413 25.452C23.8413 25.344 23.9133 25.272 24.0213 25.272H29.8533C29.9613 25.272 30.0333 25.344 30.0333 25.452C30.0333 25.56 29.9613 25.632 29.8533 25.632Z" fill="#323336"/>
<path d="M27.3693 27.072H23.9853C23.8773 27.072 23.8053 27 23.8053 26.892C23.8053 26.784 23.8773 26.712 23.9853 26.712H27.3693C27.4773 26.712 27.5493 26.784 27.5493 26.892C27.5493 27 27.4773 27.072 27.3693 27.072Z" fill="#323336"/>
<path d="M29.7813 28.512H24.0933C23.9853 28.512 23.9133 28.44 23.9133 28.332C23.9133 28.224 23.9853 28.152 24.0933 28.152H29.7813C29.8893 28.152 29.9613 28.224 29.9613 28.332C29.9613 28.44 29.8533 28.512 29.7813 28.512Z" fill="#323336"/>
<path d="M33.8133 31.68H2.8533V7.92001H33.8133V31.68ZM3.5733 30.96H33.0933V8.64001H3.5733V30.96Z" fill="#323336"/>
<path d="M33.8133 8.64001H2.8533V5.32801C2.8533 4.71601 3.5013 4.32001 4.0773 4.32001H32.5893C33.1653 4.32001 33.8133 4.71601 33.8133 5.32801V8.64001ZM3.5733 7.92001H33.0933V5.32801C33.0933 5.18401 32.8413 5.04001 32.5893 5.04001H4.0773C3.8253 5.04001 3.5733 5.18401 3.5733 5.32801V7.92001Z" fill="#323336"/>
<path d="M5.4453 6.94801C5.74354 6.94801 5.9853 6.70625 5.9853 6.40801C5.9853 6.10978 5.74354 5.86801 5.4453 5.86801C5.14707 5.86801 4.9053 6.10978 4.9053 6.40801C4.9053 6.70625 5.14707 6.94801 5.4453 6.94801Z" fill="#323336"/>
<path d="M7.24532 6.94801C7.54356 6.94801 7.78532 6.70625 7.78532 6.40801C7.78532 6.10978 7.54356 5.86801 7.24532 5.86801C6.94709 5.86801 6.70532 6.10978 6.70532 6.40801C6.70532 6.70625 6.94709 6.94801 7.24532 6.94801Z" fill="#323336"/>
<path d="M9.04531 6.94801C9.34354 6.94801 9.58531 6.70625 9.58531 6.40801C9.58531 6.10978 9.34354 5.86801 9.04531 5.86801C8.74708 5.86801 8.50531 6.10978 8.50531 6.40801C8.50531 6.70625 8.74708 6.94801 9.04531 6.94801Z" fill="#323336"/>
</svg>
